<?xml version="1.0" encoding="UTF-8"?>
<svg width="92px" height="18px" viewBox="0 0 92 18" version="1.1" xmlns="http://www.w3.org/2000/svg" xmlns:xlink="http://www.w3.org/1999/xlink">
    <!-- Generator: Sketch 52.5 (67469) - http://www.bohemiancoding.com/sketch -->
    <title>logo_small</title>
    <desc>Created with Sketch.</desc>
    <g id="tools" stroke="none" stroke-width="1" fill="none" fill-rule="evenodd">
        <g id="trip_home-copy-3" transform="translate(-141.000000, -818.000000)" fill="#CCCCCC">
            <g id="logo_small" transform="translate(141.000000, 818.000000)">
                <text id="travelloda" font-family="Quicksand-Bold, Quicksand" font-size="14" font-weight="bold" letter-spacing="-0.270000011">
                    <tspan x="25.432" y="13">travellod</tspan>
                    <tspan x="83.846" y="13">a</tspan>
                </text>
                <g id="planet" transform="translate(0.000000, 1.000000)">
                    <path d="M18.487089,0.713795831 C17.8541145,0.0517838863 16.4438035,-0.489852863 13.2566745,0.713795831 C10.3027808,-0.339392473 6.83805618,0.111988696 4.32837647,2.04780222 C1.80756855,3.98365017 0.785906768,6.98270335 1.4521897,9.77112575 C1.40775306,9.80121095 1.37444463,9.84134749 1.3411362,9.89150095 C-0.480042246,12.5495312 -0.113573292,13.9036059 0.508272998,14.5656178 C0.863613735,14.9367259 1.47440803,15.2777832 2.52937824,15.2777832 C3.27340626,15.2777832 4.23954129,15.1072546 5.48327198,14.6559078 C5.56101706,14.6258226 5.63872402,14.5957375 5.7164691,14.5656523 C5.69425078,14.8063682 5.82752261,15.0370673 6.08293805,15.1574425 C7.33779696,15.7191475 8.68149105,16 10.0140569,16 C12.0573424,16 14.0784476,15.3580563 15.7108656,14.1042886 C18.5870143,11.8875881 19.5642775,8.27671089 18.1539284,5.10712906 C18.1094918,5.01687347 18.0540031,4.94665174 17.9873482,4.88644693 C19.4421339,2.55935378 19.0645367,1.33567124 18.487089,0.713795831 Z M1.52993478,13.7832307 C1.15237572,13.382003 1.3411362,12.439173 1.99632903,11.2856777 C2.18512761,11.6668372 2.40719652,12.0379453 2.66261196,12.3990364 C2.7958838,12.579582 3.00686259,12.6698376 3.21784139,12.6698376 C3.33998501,12.6698376 3.47325684,12.6397524 3.58431035,12.5695307 C3.89525255,12.3889851 3.98408773,12.017877 3.77310893,11.7370245 C1.74091358,8.91851688 2.34057966,5.14712791 5.18341988,2.96054706 C7.85967985,0.894306992 11.8130552,0.814068335 14.5892785,2.76998456 C14.8780024,2.97059841 15.2999981,2.93046187 15.5221051,2.66967763 C15.7442121,2.40889339 15.6997755,2.02773395 15.4110516,1.8271201 C15.2333812,1.69672798 15.0445827,1.57635278 14.8558222,1.46602893 C16.1328994,1.11495469 17.1101246,1.11495469 17.4654653,1.49611413 C17.8097159,1.85720529 17.7764075,2.85018879 16.6548204,4.55533769 C15.5554517,6.2304014 13.7342351,8.0860107 11.5243694,9.79112518 C6.58267884,13.5926682 2.37388809,14.6759417 1.52993478,13.7832307 Z M14.844694,13.1914405 C12.5903916,14.9266746 9.44769928,15.2877657 6.78252942,14.1342705 C8.58152765,13.3218326 10.5248878,12.1382522 12.3794128,10.7039044 C14.3005546,9.22945458 15.9440627,7.6246126 17.1212147,6.11002621 C17.9984764,8.64775014 17.1212147,11.4361381 14.844694,13.1914405 Z" id="Shape"></path>
                </g>
            </g>
        </g>
    </g>
</svg>