<?xml version="1.0" encoding="UTF-8"?>
<svg width="128px" height="31px" viewBox="0 0 128 31" version="1.1" xmlns="http://www.w3.org/2000/svg" xmlns:xlink="http://www.w3.org/1999/xlink">
    <!-- Generator: Sketch 52.5 (67469) - http://www.bohemiancoding.com/sketch -->
    <title>logo_travelloda</title>
    <desc>Created with Sketch.</desc>
    <defs>
        <linearGradient x1="0%" y1="0%" x2="100%" y2="100%" id="linearGradient-1">
            <stop stop-color="#F8877B" offset="0%"></stop>
            <stop stop-color="#FF6F61" offset="100%"></stop>
        </linearGradient>
        <path d="M47.814,17.966 C47.9820008,17.966 48.1349993,18.0469992 48.273,18.209 C48.4110007,18.3710008 48.48,18.5839987 48.48,18.848 C48.48,19.1720016 48.3030018,19.4449989 47.949,19.667 C47.5949982,19.8890011 47.1960022,20 46.752,20 C46.0079963,20 45.3810025,19.8410016 44.871,19.523 C44.3609974,19.2049984 44.106,18.5300052 44.106,17.498 L44.106,12.53 L43.278,12.53 C42.9899986,12.53 42.750001,12.434001 42.558,12.242 C42.365999,12.049999 42.27,11.8100014 42.27,11.522 C42.27,11.2459986 42.365999,11.0150009 42.558,10.829 C42.750001,10.6429991 42.9899986,10.55 43.278,10.55 L44.106,10.55 L44.106,9.398 C44.106,9.08599844 44.210999,8.82500105 44.421,8.615 C44.6310011,8.40499895 44.8919984,8.3 45.204,8.3 C45.5040015,8.3 45.755999,8.40499895 45.96,8.615 C46.164001,8.82500105 46.266,9.08599844 46.266,9.398 L46.266,10.55 L47.544,10.55 C47.8320014,10.55 48.071999,10.645999 48.264,10.838 C48.456001,11.030001 48.552,11.2699986 48.552,11.558 C48.552,11.8340014 48.456001,12.0649991 48.264,12.251 C48.071999,12.4370009 47.8320014,12.53 47.544,12.53 L46.266,12.53 L46.266,17.408 C46.266,17.6600013 46.3319993,17.8429994 46.464,17.957 C46.5960007,18.0710006 46.7759989,18.128 47.004,18.128 C47.1000005,18.128 47.2319992,18.1040002 47.4,18.056 C47.5440007,17.9959997 47.6819993,17.966 47.814,17.966 Z M55.266,10.19 C55.6260018,10.19 55.9289988,10.291999 56.175,10.496 C56.4210012,10.700001 56.544,10.9399986 56.544,11.216 C56.544,11.5880019 56.4480009,11.8669991 56.256,12.053 C56.063999,12.2390009 55.8360013,12.332 55.572,12.332 C55.3919991,12.332 55.1880011,12.2900004 54.96,12.206 C54.9239998,12.1939999 54.8430006,12.1700002 54.717,12.134 C54.5909994,12.0979998 54.4560007,12.08 54.312,12.08 C53.9999984,12.08 53.7000014,12.175999 53.412,12.368 C53.1239985,12.560001 52.8870009,12.850998 52.701,13.241 C52.5149991,13.6310019 52.422,14.0959973 52.422,14.636 L52.422,18.902 C52.422,19.2140016 52.320001,19.4749989 52.116,19.685 C51.911999,19.8950011 51.6540015,20 51.342,20 C51.0299984,20 50.772001,19.8950011 50.568,19.685 C50.363999,19.4749989 50.262,19.2140016 50.262,18.902 L50.262,11.468 C50.262,11.1559984 50.363999,10.895001 50.568,10.685 C50.772001,10.4749989 51.0299984,10.37 51.342,10.37 C51.6540015,10.37 51.911999,10.4749989 52.116,10.685 C52.320001,10.895001 52.422,11.1559984 52.422,11.468 L52.422,11.702 C52.6980014,11.2099975 53.0939974,10.8350013 53.61,10.577 C54.1260026,10.3189987 54.677997,10.19 55.266,10.19 Z M65.382,10.19 C65.6940015,10.19 65.951999,10.291999 66.156,10.496 C66.360001,10.700001 66.462,10.9639984 66.462,11.288 L66.462,18.902 C66.462,19.2140016 66.360001,19.4749989 66.156,19.685 C65.951999,19.8950011 65.6940015,20 65.382,20 C65.0699984,20 64.815001,19.898001 64.617,19.694 C64.418999,19.489999 64.314,19.2320016 64.302,18.92 C64.0019985,19.2680017 63.5970025,19.5649988 63.087,19.811 C62.5769974,20.0570012 62.0400028,20.18 61.476,20.18 C60.6479958,20.18 59.8980033,19.9670021 59.226,19.541 C58.5539966,19.1149979 58.0230019,18.5240038 57.633,17.768 C57.242998,17.0119962 57.048,16.1540048 57.048,15.194 C57.048,14.2339952 57.2399981,13.3730038 57.624,12.611 C58.0080019,11.8489962 58.5329966,11.2550021 59.199,10.829 C59.8650033,10.4029979 60.599996,10.19 61.404,10.19 C61.9800029,10.19 62.5199975,10.294999 63.024,10.505 C63.5280025,10.715001 63.9539982,10.9819984 64.302,11.306 L64.302,11.288 C64.302,10.9759984 64.403999,10.715001 64.608,10.505 C64.812001,10.294999 65.0699984,10.19 65.382,10.19 Z M61.746,18.2 C62.5260039,18.2 63.1619975,17.9150029 63.654,17.345 C64.1460024,16.7749972 64.392,16.0580043 64.392,15.194 C64.392,14.3299957 64.1460024,13.6100029 63.654,13.034 C63.1619975,12.4579971 62.5260039,12.17 61.746,12.17 C60.9779961,12.17 60.3480024,12.4579971 59.856,13.034 C59.3639975,13.6100029 59.118,14.3299957 59.118,15.194 C59.118,16.0580043 59.3609975,16.7749972 59.847,17.345 C60.3330024,17.9150029 60.9659961,18.2 61.746,18.2 Z M75.714,10.388 C76.0020014,10.388 76.241999,10.4809991 76.434,10.667 C76.6260009,10.8530009 76.722,11.0839986 76.722,11.36 C76.722,11.5040007 76.6740004,11.6839989 76.578,11.9 L73.212,19.316 C73.1279995,19.520001 73.0050008,19.6819994 72.843,19.802 C72.6809992,19.9220006 72.498001,19.9879999 72.294,20 L72.132,20.018 C71.9279989,20.018 71.7390008,19.9550006 71.565,19.829 C71.3909991,19.7029994 71.2560004,19.5320011 71.16,19.316 L67.812,11.9 C67.7279995,11.707999 67.686,11.516001 67.686,11.324 C67.686,11.0839988 67.7879989,10.865001 67.992,10.667 C68.196001,10.468999 68.4479985,10.37 68.748,10.37 C68.9760011,10.37 69.185999,10.4299994 69.378,10.55 C69.5700009,10.6700006 69.7139995,10.8379989 69.81,11.054 L72.294,16.742 L74.76,11.072 C74.8560004,10.8439989 74.9879991,10.6700006 75.156,10.55 C75.3240008,10.4299994 75.5099989,10.3759999 75.714,10.388 Z M86.712,14.96 C86.6999999,15.2480014 86.586001,15.4819991 86.37,15.662 C86.1539989,15.8420009 85.9020014,15.932 85.614,15.932 L79.674,15.932 C79.8180007,16.6400035 80.1479974,17.194998 80.664,17.597 C81.1800025,17.999002 81.7619967,18.2 82.41,18.2 C82.9020024,18.2 83.2859986,18.1550004 83.562,18.065 C83.8380013,17.9749995 84.0569991,17.8790005 84.219,17.777 C84.3810008,17.6749995 84.4919997,17.6060002 84.552,17.57 C84.768001,17.4619995 84.971999,17.408 85.164,17.408 C85.4160012,17.408 85.6319991,17.4979991 85.812,17.678 C85.9920009,17.8580009 86.082,18.0679988 86.082,18.308 C86.082,18.6320016 85.9140016,18.9259987 85.578,19.19 C85.2419983,19.4660014 84.7920028,19.699999 84.228,19.892 C83.6639971,20.084001 83.0940028,20.18 82.518,20.18 C81.5099949,20.18 80.6310037,19.9700021 79.881,19.55 C79.1309962,19.1299979 78.552002,18.5510037 78.144,17.813 C77.7359979,17.0749963 77.532,16.2440046 77.532,15.32 C77.532,14.2879948 77.7479978,13.3820039 78.18,12.602 C78.6120021,11.8219961 79.1819964,11.2250021 79.89,10.811 C80.5980035,10.3969979 81.3539959,10.19 82.158,10.19 C82.9500039,10.19 83.6969964,10.4059978 84.399,10.838 C85.1010035,11.2700022 85.6619979,11.8519963 86.082,12.584 C86.5020021,13.3160037 86.712,14.1079957 86.712,14.96 Z M82.158,12.17 C80.765993,12.17 79.9440012,12.8239935 79.692,14.132 L84.408,14.132 L84.408,14.006 C84.3599997,13.5019975 84.1140022,13.0700018 83.67,12.71 C83.2259977,12.3499982 82.7220028,12.17 82.158,12.17 Z M90.5819999,18.902 C90.5819999,19.2140016 90.477001,19.4749989 90.2669999,19.685 C90.0569989,19.8950011 89.7960015,20 89.4839999,20 C89.1839984,20 88.932001,19.8950011 88.7279999,19.685 C88.5239989,19.4749989 88.4219999,19.2140016 88.4219999,18.902 L88.4219999,7.778 C88.4219999,7.46599844 88.5269989,7.20500105 88.7369999,6.995 C88.947001,6.78499895 89.2079984,6.68 89.5199999,6.68 C89.8200014,6.68 90.0719989,6.78499895 90.2759999,6.995 C90.480001,7.20500105 90.5819999,7.46599844 90.5819999,7.778 L90.5819999,18.902 Z M95.1719999,18.902 C95.1719999,19.2140016 95.067001,19.4749989 94.8569999,19.685 C94.6469989,19.8950011 94.3860015,20 94.0739999,20 C93.7739984,20 93.522001,19.8950011 93.3179999,19.685 C93.1139989,19.4749989 93.0119999,19.2140016 93.0119999,18.902 L93.0119999,7.778 C93.0119999,7.46599844 93.1169989,7.20500105 93.3269999,6.995 C93.537001,6.78499895 93.7979984,6.68 94.1099999,6.68 C94.4100014,6.68 94.6619989,6.78499895 94.8659999,6.995 C95.070001,7.20500105 95.1719999,7.46599844 95.1719999,7.778 L95.1719999,18.902 Z M106.494,15.194 C106.494,16.1540048 106.278002,17.0149962 105.846,17.777 C105.413998,18.5390038 104.823004,19.1299979 104.073,19.55 C103.322996,19.9700021 102.498004,20.18 101.598,20.18 C100.685995,20.18 99.8580036,19.9700021 99.1139999,19.55 C98.3699962,19.1299979 97.7820021,18.5390038 97.3499999,17.777 C96.9179978,17.0149962 96.7019999,16.1540048 96.7019999,15.194 C96.7019999,14.2339952 96.9179978,13.3730038 97.3499999,12.611 C97.7820021,11.8489962 98.3699962,11.2550021 99.1139999,10.829 C99.8580036,10.4029979 100.685995,10.19 101.598,10.19 C102.498004,10.19 103.322996,10.4029979 104.073,10.829 C104.823004,11.2550021 105.413998,11.8489962 105.846,12.611 C106.278002,13.3730038 106.494,14.2339952 106.494,15.194 Z M104.334,15.194 C104.334,14.6059971 104.211001,14.0810023 103.965,13.619 C103.718999,13.1569977 103.389002,12.8000013 102.975,12.548 C102.560998,12.2959987 102.102002,12.17 101.598,12.17 C101.093997,12.17 100.635002,12.2959987 100.221,12.548 C99.8069979,12.8000013 99.4770012,13.1569977 99.2309999,13.619 C98.9849987,14.0810023 98.8619999,14.6059971 98.8619999,15.194 C98.8619999,15.7820029 98.9849987,16.3039977 99.2309999,16.76 C99.4770012,17.2160023 99.8069979,17.5699987 100.221,17.822 C100.635002,18.0740013 101.093997,18.2 101.598,18.2 C102.102002,18.2 102.560998,18.0740013 102.975,17.822 C103.389002,17.5699987 103.718999,17.2160023 103.965,16.76 C104.211001,16.3039977 104.334,15.7820029 104.334,15.194 Z M115.818,6.68 C116.130001,6.68 116.387999,6.78199898 116.592,6.986 C116.796001,7.19000102 116.898,7.45399838 116.898,7.778 L116.898,18.902 C116.898,19.2140016 116.796001,19.4749989 116.592,19.685 C116.387999,19.8950011 116.130001,20 115.818,20 C115.505998,20 115.251001,19.898001 115.053,19.694 C114.854999,19.489999 114.75,19.2320016 114.738,18.92 C114.437998,19.2680017 114.033002,19.5649988 113.523,19.811 C113.012997,20.0570012 112.476003,20.18 111.912,20.18 C111.083996,20.18 110.334003,19.9670021 109.662,19.541 C108.989997,19.1149979 108.459002,18.5240038 108.069,17.768 C107.678998,17.0119962 107.484,16.1540048 107.484,15.194 C107.484,14.2339952 107.675998,13.3730038 108.06,12.611 C108.444002,11.8489962 108.968997,11.2550021 109.635,10.829 C110.301003,10.4029979 111.035996,10.19 111.84,10.19 C112.416003,10.19 112.955997,10.294999 113.46,10.505 C113.964002,10.715001 114.389998,10.9819984 114.738,11.306 L114.738,7.778 C114.738,7.46599844 114.839999,7.20500105 115.044,6.995 C115.248001,6.78499895 115.505998,6.68 115.818,6.68 Z M112.182,18.2 C112.962004,18.2 113.597997,17.9150029 114.09,17.345 C114.582002,16.7749972 114.828,16.0580043 114.828,15.194 C114.828,14.3299957 114.582002,13.6100029 114.09,13.034 C113.597997,12.4579971 112.962004,12.17 112.182,12.17 C111.413996,12.17 110.784002,12.4579971 110.292,13.034 C109.799997,13.6100029 109.554,14.3299957 109.554,15.194 C109.554,16.0580043 109.796997,16.7749972 110.283,17.345 C110.769002,17.9150029 111.401996,18.2 112.182,18.2 Z M126.762,10.19 C127.074001,10.19 127.331999,10.291999 127.536,10.496 C127.740001,10.700001 127.842,10.9639984 127.842,11.288 L127.842,18.902 C127.842,19.2140016 127.740001,19.4749989 127.536,19.685 C127.331999,19.8950011 127.074001,20 126.762,20 C126.449998,20 126.195001,19.898001 125.997,19.694 C125.798999,19.489999 125.694,19.2320016 125.682,18.92 C125.381998,19.2680017 124.977002,19.5649988 124.467,19.811 C123.956997,20.0570012 123.420003,20.18 122.856,20.18 C122.027996,20.18 121.278003,19.9670021 120.606,19.541 C119.933997,19.1149979 119.403002,18.5240038 119.013,17.768 C118.622998,17.0119962 118.428,16.1540048 118.428,15.194 C118.428,14.2339952 118.619998,13.3730038 119.004,12.611 C119.388002,11.8489962 119.912997,11.2550021 120.579,10.829 C121.245003,10.4029979 121.979996,10.19 122.784,10.19 C123.360003,10.19 123.899997,10.294999 124.404,10.505 C124.908002,10.715001 125.333998,10.9819984 125.682,11.306 L125.682,11.288 C125.682,10.9759984 125.783999,10.715001 125.988,10.505 C126.192001,10.294999 126.449998,10.19 126.762,10.19 Z M123.126,18.2 C123.906004,18.2 124.541997,17.9150029 125.034,17.345 C125.526002,16.7749972 125.772,16.0580043 125.772,15.194 C125.772,14.3299957 125.526002,13.6100029 125.034,13.034 C124.541997,12.4579971 123.906004,12.17 123.126,12.17 C122.357996,12.17 121.728002,12.4579971 121.236,13.034 C120.743997,13.6100029 120.498,14.3299957 120.498,15.194 C120.498,16.0580043 120.740997,16.7749972 121.227,17.345 C121.713002,17.9150029 122.345996,18.2 123.126,18.2 Z" id="path-2"></path>
    </defs>
    <g id="member" stroke="none" stroke-width="1" fill="none" fill-rule="evenodd">
        <g id="find_pw_web_3" transform="translate(-50.000000, -123.000000)">
            <g id="logo_travelloda" transform="translate(50.000000, 123.000000)">
                <g id="travelloda">
                    <use fill="#56DDE3" xlink:href="#path-2"></use>
                    <use fill="url(#linearGradient-1)" xlink:href="#path-2"></use>
                </g>
                <path d="M31.1361498,1.34107096 C30.0700875,0.0972909378 27.694827,-0.920329621 22.3270308,1.34107096 C17.3520519,-0.637646465 11.5167262,0.210403004 7.28989722,3.84738599 C3.04432598,7.48443366 1.32363245,13.1190184 2.44579319,18.3578726 C2.37095252,18.4143963 2.31485411,18.4898044 2.2587557,18.5840321 C-0.808492204,23.5779072 -0.191281334,26.1219262 0.856038733,27.3657062 C1.45450734,28.0629396 2.48321352,28.703714 4.26000546,28.703714 C5.51310528,28.703714 7.14028006,28.3833268 9.23498438,27.535342 C9.36592346,27.4788183 9.49679835,27.4222946 9.62773743,27.3657709 C9.5903171,27.8180252 9.81477492,28.2514597 10.2449483,28.4776192 C12.3583949,29.5329438 14.6214586,30.0606061 16.8657801,30.0606061 C20.307103,30.0606061 23.7110697,28.8545301 26.4604052,26.4989664 C31.3044451,22.3342565 32.9503621,15.5501841 30.5750374,9.59521216 C30.5001967,9.42564107 30.4067421,9.29370933 30.2944811,9.18059727 C32.7446465,4.80848286 32.1086934,2.50944293 31.1361498,1.34107096 Z M2.57673226,25.8957668 C1.94084332,25.141945 2.2587557,23.3705674 3.36223836,21.2033945 C3.68021493,21.9195122 4.05422571,22.6167456 4.4843991,23.2951593 C4.70885692,23.6343662 5.06418963,23.8039373 5.41952235,23.8039373 C5.62523791,23.8039373 5.84969573,23.7474136 6.03673322,23.6154818 C6.56042534,23.276275 6.7100425,22.5790416 6.35470978,22.0513793 C2.93206498,16.7560014 3.9420289,9.67036152 8.72997033,5.56223993 C13.2373555,1.68021314 19.8956718,1.52946172 24.5714165,5.20421341 C25.0576883,5.58112428 25.7684179,5.50571624 26.1424928,5.01575797 C26.5165678,4.5257997 26.4417271,3.80968197 25.9554554,3.4327711 C25.656221,3.18779196 25.3382445,2.9616325 25.0203321,2.75435739 C27.171199,2.09476336 28.8170519,2.09476336 29.4155205,2.81088109 C29.995311,3.48929479 29.9392126,5.35490015 28.0502239,8.55851324 C26.1986554,11.7056026 23.1313433,15.1918989 19.4094642,18.3954473 C11.086617,25.5377402 3.99812731,27.5729814 2.57673226,25.8957668 Z M25.0015898,24.7839185 C21.2048701,28.0440553 15.9119146,28.722469 11.4232074,26.5552961 C14.4530992,25.0288976 17.7261269,22.8052011 20.8495374,20.1103659 C24.0851447,17.3401874 26.8531583,14.3250297 28.83573,11.4794432 C30.3132234,16.2472881 28.83573,21.4860777 25.0015898,24.7839185 Z" id="Shape" fill="url(#linearGradient-1)"></path>
            </g>
        </g>
    </g>
</svg>