<?xml version="1.0" encoding="UTF-8"?>
<svg width="32px" height="32px" viewBox="0 0 32 32" version="1.1" xmlns="http://www.w3.org/2000/svg" xmlns:xlink="http://www.w3.org/1999/xlink">
    <!-- Generator: Sketch 52.5 (67469) - http://www.bohemiancoding.com/sketch -->
    <title>loda_symbol</title>
    <desc>Created with Sketch.</desc>
    <defs>
        <linearGradient x1="0%" y1="0%" x2="100%" y2="100%" id="linearGradient-1">
            <stop stop-color="#F8877B" offset="0%"></stop>
            <stop stop-color="#FF6F61" offset="100%"></stop>
        </linearGradient>
    </defs>
    <g id="member" stroke="none" stroke-width="1" fill="none" fill-rule="evenodd">
        <g id="find_pw_web_2" transform="translate(-50.000000, -122.000000)" fill="url(#linearGradient-1)">
            <g id="logo" transform="translate(50.000000, 122.000000)">
                <g id="loda_symbol">
                    <path d="M31.1361498,2.34107096 C30.0700875,1.09729094 27.694827,0.0796703791 22.3270308,2.34107096 C17.3520519,0.362353535 11.5167262,1.210403 7.28989722,4.84738599 C3.04432598,8.48443366 1.32363245,14.1190184 2.44579319,19.3578726 C2.37095252,19.4143963 2.31485411,19.4898044 2.2587557,19.5840321 C-0.808492204,24.5779072 -0.191281334,27.1219262 0.856038733,28.3657062 C1.45450734,29.0629396 2.48321352,29.703714 4.26000546,29.703714 C5.51310528,29.703714 7.14028006,29.3833268 9.23498438,28.535342 C9.36592346,28.4788183 9.49679835,28.4222946 9.62773743,28.3657709 C9.5903171,28.8180252 9.81477492,29.2514597 10.2449483,29.4776192 C12.3583949,30.5329438 14.6214586,31.0606061 16.8657801,31.0606061 C20.307103,31.0606061 23.7110697,29.8545301 26.4604052,27.4989664 C31.3044451,23.3342565 32.9503621,16.5501841 30.5750374,10.5952122 C30.5001967,10.4256411 30.4067421,10.2937093 30.2944811,10.1805973 C32.7446465,5.80848286 32.1086934,3.50944293 31.1361498,2.34107096 Z M2.57673226,26.8957668 C1.94084332,26.141945 2.2587557,24.3705674 3.36223836,22.2033945 C3.68021493,22.9195122 4.05422571,23.6167456 4.4843991,24.2951593 C4.70885692,24.6343662 5.06418963,24.8039373 5.41952235,24.8039373 C5.62523791,24.8039373 5.84969573,24.7474136 6.03673322,24.6154818 C6.56042534,24.276275 6.7100425,23.5790416 6.35470978,23.0513793 C2.93206498,17.7560014 3.9420289,10.6703615 8.72997033,6.56223993 C13.2373555,2.68021314 19.8956718,2.52946172 24.5714165,6.20421341 C25.0576883,6.58112428 25.7684179,6.50571624 26.1424928,6.01575797 C26.5165678,5.5257997 26.4417271,4.80968197 25.9554554,4.4327711 C25.656221,4.18779196 25.3382445,3.9616325 25.0203321,3.75435739 C27.171199,3.09476336 28.8170519,3.09476336 29.4155205,3.81088109 C29.995311,4.48929479 29.9392126,6.35490015 28.0502239,9.55851324 C26.1986554,12.7056026 23.1313433,16.1918989 19.4094642,19.3954473 C11.086617,26.5377402 3.99812731,28.5729814 2.57673226,26.8957668 Z M25.0015898,25.7839185 C21.2048701,29.0440553 15.9119146,29.722469 11.4232074,27.5552961 C14.4530992,26.0288976 17.7261269,23.8052011 20.8495374,21.1103659 C24.0851447,18.3401874 26.8531583,15.3250297 28.83573,12.4794432 C30.3132234,17.2472881 28.83573,22.4860777 25.0015898,25.7839185 Z" id="Shape"></path>
                </g>
            </g>
        </g>
    </g>
</svg>