<?xml version="1.0" encoding="UTF-8"?>
<svg width="86px" height="15px" viewBox="0 0 86 15" version="1.1" xmlns="http://www.w3.org/2000/svg" xmlns:xlink="http://www.w3.org/1999/xlink">
    <!-- Generator: Sketch 52.5 (67469) - http://www.bohemiancoding.com/sketch -->
    <title>travelloda</title>
    <desc>Created with Sketch.</desc>
    <defs>
        <linearGradient x1="0%" y1="0%" x2="100%" y2="100%" id="linearGradient-1">
            <stop stop-color="#F8877B" offset="0%"></stop>
            <stop stop-color="#FF6F61" offset="100%"></stop>
        </linearGradient>
    </defs>
    <g id="member" stroke="none" stroke-width="1" fill="none" fill-rule="evenodd">
        <g id="find_pw_web_1" transform="translate(-149.000000, -188.000000)" fill="url(#linearGradient-1)">
            <g id="Group" transform="translate(149.000000, 188.000000)">
                <path d="M5.814,11.966 C5.98200084,11.966 6.13499931,12.0469992 6.273,12.209 C6.41100069,12.3710008 6.48,12.5839987 6.48,12.848 C6.48,13.1720016 6.30300177,13.4449989 5.949,13.667 C5.59499823,13.8890011 5.19600222,14 4.752,14 C4.00799628,14 3.38100255,13.8410016 2.871,13.523 C2.36099745,13.2049984 2.106,12.5300052 2.106,11.498 L2.106,6.53 L1.278,6.53 C0.98999856,6.53 0.75000096,6.43400096 0.558,6.242 C0.36599904,6.04999904 0.27,5.81000144 0.27,5.522 C0.27,5.24599862 0.36599904,5.01500093 0.558,4.829 C0.75000096,4.64299907 0.98999856,4.55 1.278,4.55 L2.106,4.55 L2.106,3.398 C2.106,3.08599844 2.21099895,2.82500105 2.421,2.615 C2.63100105,2.40499895 2.89199844,2.3 3.204,2.3 C3.5040015,2.3 3.75599898,2.40499895 3.96,2.615 C4.16400102,2.82500105 4.266,3.08599844 4.266,3.398 L4.266,4.55 L5.544,4.55 C5.83200144,4.55 6.07199904,4.64599904 6.264,4.838 C6.45600096,5.03000096 6.552,5.26999856 6.552,5.558 C6.552,5.83400138 6.45600096,6.06499907 6.264,6.251 C6.07199904,6.43700093 5.83200144,6.53 5.544,6.53 L4.266,6.53 L4.266,11.408 C4.266,11.6600013 4.33199934,11.8429994 4.464,11.957 C4.59600066,12.0710006 4.77599886,12.128 5.004,12.128 C5.10000048,12.128 5.23199916,12.1040002 5.4,12.056 C5.54400072,11.9959997 5.68199934,11.966 5.814,11.966 Z M13.266,4.19 C13.6260018,4.19 13.9289988,4.29199898 14.175,4.496 C14.4210012,4.70000102 14.544,4.93999862 14.544,5.216 C14.544,5.58800186 14.4480009,5.86699907 14.256,6.053 C14.063999,6.23900093 13.8360013,6.332 13.572,6.332 C13.3919991,6.332 13.1880011,6.29000042 12.96,6.206 C12.9239998,6.19399994 12.8430006,6.17000018 12.717,6.134 C12.5909994,6.09799982 12.4560007,6.08 12.312,6.08 C11.9999984,6.08 11.7000014,6.17599904 11.412,6.368 C11.1239985,6.56000096 10.8870009,6.85099805 10.701,7.241 C10.5149991,7.63100195 10.422,8.0959973 10.422,8.636 L10.422,12.902 C10.422,13.2140016 10.320001,13.4749989 10.116,13.685 C9.91199897,13.895001 9.65400155,14 9.34199999,14 C9.02999843,14 8.77200101,13.895001 8.56799999,13.685 C8.36399897,13.4749989 8.26199999,13.2140016 8.26199999,12.902 L8.26199999,5.468 C8.26199999,5.15599844 8.36399897,4.89500105 8.56799999,4.685 C8.77200101,4.47499895 9.02999843,4.37 9.34199999,4.37 C9.65400155,4.37 9.91199897,4.47499895 10.116,4.685 C10.320001,4.89500105 10.422,5.15599844 10.422,5.468 L10.422,5.702 C10.6980014,5.20999754 11.0939974,4.83500129 11.61,4.577 C12.1260026,4.31899871 12.677997,4.19 13.266,4.19 Z M23.382,4.19 C23.6940015,4.19 23.951999,4.29199898 24.156,4.496 C24.360001,4.70000102 24.462,4.96399838 24.462,5.288 L24.462,12.902 C24.462,13.2140016 24.360001,13.4749989 24.156,13.685 C23.951999,13.895001 23.6940015,14 23.382,14 C23.0699984,14 22.815001,13.898001 22.617,13.694 C22.418999,13.489999 22.314,13.2320016 22.302,12.92 C22.0019985,13.2680017 21.5970025,13.5649988 21.087,13.811 C20.5769974,14.0570012 20.0400028,14.18 19.476,14.18 C18.6479958,14.18 17.8980033,13.9670021 17.226,13.541 C16.5539966,13.1149979 16.0230019,12.5240038 15.633,11.768 C15.242998,11.0119962 15.048,10.1540048 15.048,9.194 C15.048,8.2339952 15.2399981,7.37300381 15.624,6.611 C16.0080019,5.84899619 16.5329966,5.25500213 17.199,4.829 C17.8650033,4.40299787 18.599996,4.19 19.404,4.19 C19.9800029,4.19 20.5199975,4.29499895 21.024,4.505 C21.5280025,4.71500105 21.9539982,4.98199838 22.302,5.306 L22.302,5.288 C22.302,4.97599844 22.403999,4.71500105 22.608,4.505 C22.812001,4.29499895 23.0699984,4.19 23.382,4.19 Z M19.746,12.2 C20.5260039,12.2 21.1619975,11.9150028 21.654,11.345 C22.1460024,10.7749971 22.392,10.0580043 22.392,9.194 C22.392,8.32999568 22.1460024,7.61000288 21.654,7.034 C21.1619975,6.45799712 20.5260039,6.17 19.746,6.17 C18.9779961,6.17 18.3480024,6.45799712 17.856,7.034 C17.3639975,7.61000288 17.118,8.32999568 17.118,9.194 C17.118,10.0580043 17.3609975,10.7749971 17.847,11.345 C18.3330024,11.9150028 18.9659961,12.2 19.746,12.2 Z M33.714,4.388 C34.0020014,4.388 34.241999,4.48099907 34.434,4.667 C34.6260009,4.85300093 34.722,5.08399862 34.722,5.36 C34.722,5.50400072 34.6740004,5.68399892 34.578,5.9 L31.212,13.316 C31.1279995,13.520001 31.0050008,13.6819994 30.843,13.802 C30.6809992,13.9220006 30.498001,13.9879999 30.294,14 L30.132,14.018 C29.9279989,14.018 29.7390008,13.9550006 29.565,13.829 C29.3909991,13.7029994 29.2560004,13.5320011 29.16,13.316 L25.812,5.9 C25.7279995,5.70799904 25.686,5.51600096 25.686,5.324 C25.686,5.0839988 25.7879989,4.86500099 25.992,4.667 C26.196001,4.46899901 26.4479985,4.37 26.748,4.37 C26.9760011,4.37 27.185999,4.4299994 27.378,4.55 C27.5700009,4.6700006 27.7139995,4.83799892 27.81,5.054 L30.294,10.742 L32.76,5.072 C32.8560004,4.84399886 32.9879991,4.6700006 33.156,4.55 C33.3240008,4.4299994 33.5099989,4.37599994 33.714,4.388 Z M44.712,8.96 C44.6999999,9.24800144 44.586001,9.4819991 44.37,9.662 C44.1539989,9.8420009 43.9020014,9.932 43.614,9.932 L37.674,9.932 C37.8180007,10.6400035 38.1479974,11.194998 38.664,11.597 C39.1800025,11.999002 39.7619967,12.2 40.41,12.2 C40.9020024,12.2 41.2859986,12.1550004 41.562,12.065 C41.8380013,11.9749995 42.0569991,11.8790005 42.219,11.777 C42.3810008,11.6749995 42.4919997,11.6060002 42.552,11.57 C42.768001,11.4619995 42.971999,11.408 43.164,11.408 C43.4160012,11.408 43.6319991,11.4979991 43.812,11.678 C43.9920009,11.8580009 44.082,12.0679988 44.082,12.308 C44.082,12.6320016 43.9140016,12.9259987 43.578,13.19 C43.2419983,13.4660014 42.7920028,13.699999 42.228,13.892 C41.6639971,14.084001 41.0940028,14.18 40.518,14.18 C39.5099949,14.18 38.6310037,13.9700021 37.881,13.55 C37.1309962,13.1299979 36.552002,12.5510037 36.144,11.813 C35.7359979,11.0749963 35.532,10.2440046 35.532,9.32 C35.532,8.28799484 35.7479978,7.3820039 36.18,6.602 C36.6120021,5.8219961 37.1819964,5.22500207 37.89,4.811 C38.5980035,4.39699793 39.3539959,4.19 40.158,4.19 C40.9500039,4.19 41.6969964,4.40599784 42.399,4.838 C43.1010035,5.27000216 43.6619979,5.85199634 44.082,6.584 C44.5020021,7.31600366 44.712,8.10799574 44.712,8.96 Z M40.158,6.17 C38.765993,6.17 37.9440012,6.82399346 37.692,8.132 L42.408,8.132 L42.408,8.006 C42.3599997,7.50199748 42.1140022,7.0700018 41.67,6.71 C41.2259977,6.3499982 40.7220028,6.17 40.158,6.17 Z M48.5819999,12.902 C48.5819999,13.2140016 48.477001,13.4749989 48.2669999,13.685 C48.0569989,13.895001 47.7960015,14 47.4839999,14 C47.1839984,14 46.932001,13.895001 46.7279999,13.685 C46.5239989,13.4749989 46.4219999,13.2140016 46.4219999,12.902 L46.4219999,1.778 C46.4219999,1.46599844 46.5269989,1.20500105 46.7369999,0.995 C46.947001,0.78499895 47.2079984,0.68 47.5199999,0.68 C47.8200014,0.68 48.0719989,0.78499895 48.2759999,0.995 C48.480001,1.20500105 48.5819999,1.46599844 48.5819999,1.778 L48.5819999,12.902 Z M53.1719999,12.902 C53.1719999,13.2140016 53.067001,13.4749989 52.8569999,13.685 C52.6469989,13.895001 52.3860015,14 52.0739999,14 C51.7739984,14 51.522001,13.895001 51.3179999,13.685 C51.1139989,13.4749989 51.0119999,13.2140016 51.0119999,12.902 L51.0119999,1.778 C51.0119999,1.46599844 51.1169989,1.20500105 51.3269999,0.995 C51.537001,0.78499895 51.7979984,0.68 52.1099999,0.68 C52.4100014,0.68 52.6619989,0.78499895 52.8659999,0.995 C53.070001,1.20500105 53.1719999,1.46599844 53.1719999,1.778 L53.1719999,12.902 Z M64.4939999,9.194 C64.4939999,10.1540048 64.2780021,11.0149962 63.8459999,11.777 C63.4139978,12.5390038 62.8230037,13.1299979 62.0729999,13.55 C61.3229962,13.9700021 60.4980044,14.18 59.5979999,14.18 C58.6859954,14.18 57.8580036,13.9700021 57.1139999,13.55 C56.3699962,13.1299979 55.7820021,12.5390038 55.3499999,11.777 C54.9179978,11.0149962 54.7019999,10.1540048 54.7019999,9.194 C54.7019999,8.2339952 54.9179978,7.37300381 55.3499999,6.611 C55.7820021,5.84899619 56.3699962,5.25500213 57.1139999,4.829 C57.8580036,4.40299787 58.6859954,4.19 59.5979999,4.19 C60.4980044,4.19 61.3229962,4.40299787 62.0729999,4.829 C62.8230037,5.25500213 63.4139978,5.84899619 63.8459999,6.611 C64.2780021,7.37300381 64.4939999,8.2339952 64.4939999,9.194 Z M62.3339999,9.194 C62.3339999,8.60599706 62.2110012,8.08100231 61.9649999,7.619 C61.7189987,7.15699769 61.389002,6.80000126 60.9749999,6.548 C60.5609979,6.29599874 60.1020024,6.17 59.5979999,6.17 C59.0939974,6.17 58.635002,6.29599874 58.2209999,6.548 C57.8069979,6.80000126 57.4770012,7.15699769 57.2309999,7.619 C56.9849987,8.08100231 56.8619999,8.60599706 56.8619999,9.194 C56.8619999,9.78200294 56.9849987,10.3039977 57.2309999,10.76 C57.4770012,11.2160023 57.8069979,11.5699987 58.2209999,11.822 C58.635002,12.0740013 59.0939974,12.2 59.5979999,12.2 C60.1020024,12.2 60.5609979,12.0740013 60.9749999,11.822 C61.389002,11.5699987 61.7189987,11.2160023 61.9649999,10.76 C62.2110012,10.3039977 62.3339999,9.78200294 62.3339999,9.194 Z M73.8179999,0.68 C74.1300015,0.68 74.3879989,0.78199898 74.5919999,0.986 C74.7960009,1.19000102 74.8979999,1.45399838 74.8979999,1.778 L74.8979999,12.902 C74.8979999,13.2140016 74.7960009,13.4749989 74.5919999,13.685 C74.3879989,13.895001 74.1300015,14 73.8179999,14 C73.5059984,14 73.2510009,13.898001 73.0529999,13.694 C72.8549989,13.489999 72.75,13.2320016 72.7379999,12.92 C72.4379984,13.2680017 72.0330025,13.5649988 71.5229999,13.811 C71.0129974,14.0570012 70.4760027,14.18 69.9119999,14.18 C69.0839958,14.18 68.3340033,13.9670021 67.6619999,13.541 C66.9899966,13.1149979 66.4590019,12.5240038 66.0689999,11.768 C65.678998,11.0119962 65.4839999,10.1540048 65.4839999,9.194 C65.4839999,8.2339952 65.675998,7.37300381 66.0599999,6.611 C66.4440018,5.84899619 66.9689966,5.25500213 67.6349999,4.829 C68.3010032,4.40299787 69.0359959,4.19 69.8399999,4.19 C70.4160028,4.19 70.9559974,4.29499895 71.4599999,4.505 C71.9640024,4.71500105 72.3899982,4.98199838 72.7379999,5.306 L72.7379999,1.778 C72.7379999,1.46599844 72.8399989,1.20500105 73.0439999,0.995 C73.2480009,0.78499895 73.5059984,0.68 73.8179999,0.68 Z M70.1819999,12.2 C70.9620038,12.2 71.5979975,11.9150028 72.0899999,11.345 C72.5820024,10.7749971 72.8279999,10.0580043 72.8279999,9.194 C72.8279999,8.32999568 72.5820024,7.61000288 72.0899999,7.034 C71.5979975,6.45799712 70.9620038,6.17 70.1819999,6.17 C69.4139961,6.17 68.7840024,6.45799712 68.2919999,7.034 C67.7999975,7.61000288 67.5539999,8.32999568 67.5539999,9.194 C67.5539999,10.0580043 67.7969975,10.7749971 68.2829999,11.345 C68.7690023,11.9150028 69.401996,12.2 70.1819999,12.2 Z M84.7619999,4.19 C85.0740015,4.19 85.3319989,4.29199898 85.5359999,4.496 C85.7400009,4.70000102 85.8419999,4.96399838 85.8419999,5.288 L85.8419999,12.902 C85.8419999,13.2140016 85.7400009,13.4749989 85.5359999,13.685 C85.3319989,13.895001 85.0740015,14 84.7619999,14 C84.4499983,14 84.1950009,13.898001 83.9969999,13.694 C83.7989989,13.489999 83.694,13.2320016 83.6819999,12.92 C83.3819984,13.2680017 82.9770025,13.5649988 82.4669999,13.811 C81.9569974,14.0570012 81.4200027,14.18 80.8559999,14.18 C80.0279958,14.18 79.2780033,13.9670021 78.6059999,13.541 C77.9339965,13.1149979 77.4030019,12.5240038 77.0129999,11.768 C76.622998,11.0119962 76.4279999,10.1540048 76.4279999,9.194 C76.4279999,8.2339952 76.619998,7.37300381 77.0039999,6.611 C77.3880018,5.84899619 77.9129966,5.25500213 78.5789999,4.829 C79.2450032,4.40299787 79.9799959,4.19 80.7839999,4.19 C81.3600028,4.19 81.8999974,4.29499895 82.4039999,4.505 C82.9080024,4.71500105 83.3339982,4.98199838 83.6819999,5.306 L83.6819999,5.288 C83.6819999,4.97599844 83.7839989,4.71500105 83.9879999,4.505 C84.1920009,4.29499895 84.4499983,4.19 84.7619999,4.19 Z M81.1259999,12.2 C81.9060038,12.2 82.5419974,11.9150028 83.0339999,11.345 C83.5260024,10.7749971 83.7719999,10.0580043 83.7719999,9.194 C83.7719999,8.32999568 83.5260024,7.61000288 83.0339999,7.034 C82.5419974,6.45799712 81.9060038,6.17 81.1259999,6.17 C80.3579961,6.17 79.7280024,6.45799712 79.2359999,7.034 C78.7439974,7.61000288 78.4979999,8.32999568 78.4979999,9.194 C78.4979999,10.0580043 78.7409975,10.7749971 79.2269999,11.345 C79.7130023,11.9150028 80.345996,12.2 81.1259999,12.2 Z" id="travelloda"></path>
            </g>
        </g>
    </g>
</svg>